<svg xmlns="http://www.w3.org/2000/svg" xmlns:xlink="http://www.w3.org/1999/xlink" version="1.1" width="1080" height="1080" viewBox="0 0 1080 1080" xml:space="preserve"><g xmlns="http://www.w3.org/2000/svg" transform="matrix(1 0 0 1 222.69 568.5)">
<path style="stroke: rgb(0,0,0); stroke-width: 30; stroke-dasharray: none; stroke-linecap: round; stroke-dashoffset: 0; stroke-linejoin: round; stroke-miterlimit: 10; fill: none; fill-rule: nonzero; opacity: 1;" vector-effect="non-scaling-stroke" transform=" translate(-222.69, -568.49)" d="M 212.1769911504425 191.8969911504425 Q 212.1769911504425 191.9269911504425 212.1769911504425 195.75 Q 212.1769911504425 199.57300884955754 212.1769911504425 206.2632743362832 Q 212.1769911504425 212.95353982300887 213.1327433628319 224.42256637168143 Q 214.08849557522126 235.891592920354 214.08849557522126 250.22787610619469 Q 214.08849557522126 264.5641592920354 214.08849557522126 284.63495575221236 Q 214.08849557522126 304.70575221238937 214.08849557522126 330.51106194690266 Q 214.08849557522126 356.31637168141594 214.08849557522126 387.8561946902655 Q 214.08849557522126 419.3960176991151 214.08849557522126 463.3606194690266 Q 214.08849557522126 507.32522123893807 214.08849557522126 548.4225663716815 Q 214.08849557522126 589.5199115044248 216 629.6615044247787 Q 217.91150442477877 669.8030973451328 218.86725663716817 709.9446902654868 Q 219.82300884955754 750.0862831858408 221.73451327433628 781.6261061946902 Q 223.64601769911505 813.1659292035398 225.55752212389382 841.8384955752213 Q 227.4690265486726 870.5110619469027 229.38053097345136 889.6261061946902 Q 231.2920353982301 908.7411504424779 231.2920353982301 919.2544247787611 Q 231.2920353982301 929.7676991150443 232.24778761061947 934.5464601769911 Q 233.20353982300887 939.3252212389381 233.20353982300887 942.1924778761063 L 233.20353982300887 945.0897345132744" stroke-linecap="round"/>
</g></svg>