<svg xmlns="http://www.w3.org/2000/svg" xmlns:xlink="http://www.w3.org/1999/xlink" version="1.1" width="1080" height="1080" viewBox="0 0 1080 1080" xml:space="preserve"><g xmlns="http://www.w3.org/2000/svg" transform="matrix(1 0 0 1 463.54 163.26)">
<path style="stroke: rgb(0,0,0); stroke-width: 30; stroke-dasharray: none; stroke-linecap: round; stroke-dashoffset: 0; stroke-linejoin: round; stroke-miterlimit: 10; fill: none; fill-rule: nonzero; opacity: 1;" vector-effect="non-scaling-stroke" transform=" translate(-463.54, -163.25)" d="M 101.27973451327433 163.25442477876106 Q 101.30973451327434 163.25442477876106 102.26548672566372 163.25442477876106 Q 103.2212389380531 163.25442477876106 105.13274336283186 163.25442477876106 Q 107.04424778761063 163.25442477876106 109.91150442477877 164.21017699115043 Q 112.77876106194691 165.16592920353983 121.38053097345133 166.12168141592923 Q 129.98230088495575 167.0774336283186 141.4513274336283 168.03318584070797 Q 152.9203539823009 168.98893805309734 172.0353982300885 169.9446902654867 Q 191.1504424778761 170.9004424778761 215.04424778761063 170.9004424778761 Q 238.93805309734515 170.9004424778761 268.56637168141594 170.9004424778761 Q 298.1946902654867 170.9004424778761 342.15929203539827 170.9004424778761 Q 386.12389380530976 170.9004424778761 435.82300884955754 168.98893805309734 Q 485.5221238938053 167.0774336283186 522.7964601769911 167.0774336283186 Q 560.070796460177 167.0774336283186 600.212389380531 167.0774336283186 Q 640.353982300885 167.0774336283186 671.8938053097345 167.0774336283186 Q 703.433628318584 167.0774336283186 722.5486725663717 167.0774336283186 Q 741.6637168141593 167.0774336283186 760.778761061947 166.12168141592923 Q 779.8938053097346 165.16592920353983 790.4070796460178 163.25442477876106 Q 800.9203539823009 161.34292035398232 805.6991150442477 160.38716814159295 Q 810.4778761061947 159.43141592920355 812.3893805309735 158.47566371681415 Q 814.3008849557523 157.51991150442478 815.2566371681417 157.51991150442478 Q 816.212389380531 157.51991150442478 817.1681415929204 156.5641592920354 Q 818.1238938053098 155.608407079646 819.0796460176991 155.608407079646 Q 820.0353982300885 155.608407079646 822.9026548672566 155.608407079646 L 825.7999115044248 155.608407079646" stroke-linecap="round"/>
</g></svg>