<svg xmlns="http://www.w3.org/2000/svg" xmlns:xlink="http://www.w3.org/1999/xlink" version="1.1" width="1080" height="1080" viewBox="0 0 1080 1080" xml:space="preserve"><g xmlns="http://www.w3.org/2000/svg" transform="matrix(1 0 0 1 592.57 838.97)">
<path style="stroke: rgb(0,0,0); stroke-width: 9; stroke-dasharray: none; stroke-linecap: round; stroke-dashoffset: 0; stroke-linejoin: round; stroke-miterlimit: 10; fill: none; fill-rule: nonzero; opacity: 1;" vector-effect="non-scaling-stroke" transform=" translate(-592.57, -838.97)" d="M 544.778761061947 769.1923274336283 Q 544.778761061947 769.2013274336283 545.7345132743363 769.2013274336283 Q 546.6902654867257 769.2013274336283 546.6902654867257 770.1570796460178 Q 546.6902654867257 771.1128318584072 546.6902654867257 773.0243362831859 Q 546.6902654867257 774.9358407079646 547.6460176991151 777.8030973451328 Q 548.6017699115044 780.6703539823009 549.5575221238938 784.4933628318583 Q 550.5132743362832 788.316371681416 552.424778761062 792.1393805309735 Q 554.3362831858408 795.962389380531 556.2477876106195 799.7853982300885 Q 558.1592920353983 803.6084070796461 560.070796460177 808.387168141593 Q 561.9823008849557 813.1659292035398 564.8495575221239 816.9889380530974 Q 567.7168141592921 820.8119469026549 570.5840707964602 825.5907079646017 Q 573.4513274336283 830.3694690265487 577.2743362831859 833.2367256637169 Q 581.0973451327434 836.103982300885 583.0088495575221 839.9269911504425 Q 584.9203539823009 843.75 586.8318584070796 845.6615044247787 Q 588.7433628318585 847.5730088495576 589.6991150442478 849.4845132743363 Q 590.6548672566372 851.3960176991151 592.566371681416 853.3075221238938 Q 594.4778761061947 855.2190265486726 595.433628318584 857.1305309734514 Q 596.3893805309734 859.0420353982302 598.3008849557523 860.9535398230089 Q 600.212389380531 862.8650442477876 602.1238938053098 865.7323008849557 Q 604.0353982300885 868.599557522124 605.9469026548672 871.4668141592921 Q 607.8584070796461 874.3340707964602 610.7256637168142 875.2898230088496 Q 613.5929203539823 876.2455752212389 614.5486725663717 879.1128318584072 Q 615.5044247787611 881.9800884955753 618.3716814159293 884.8473451327434 Q 621.2389380530974 887.7146017699115 624.1061946902655 889.6261061946902 Q 626.9734513274336 891.5376106194691 628.8849557522124 894.4048672566372 Q 630.7964601769912 897.2721238938053 632.70796460177 899.1836283185842 Q 634.6194690265487 901.0951327433629 635.5752212389381 902.0508849557523 Q 636.5309734513274 903.0066371681417 637.4867256637168 904.9181415929204 Q 638.4424778761062 906.8296460176991 639.3982300884957 906.8296460176991 Q 640.353982300885 906.8296460176991 640.353982300885 907.7853982300885 L 640.353982300885 908.7501504424779" stroke-linecap="round"/>
</g></svg>