<svg xmlns="http://www.w3.org/2000/svg" xmlns:xlink="http://www.w3.org/1999/xlink" version="1.1" width="1080" height="1080" viewBox="0 0 1080 1080" xml:space="preserve"><g xmlns="http://www.w3.org/2000/svg" transform="matrix(1 0 0 1 503.69 638.26)">
<path style="stroke: rgb(0,0,0); stroke-width: 9; stroke-dasharray: none; stroke-linecap: round; stroke-dashoffset: 0; stroke-linejoin: round; stroke-miterlimit: 10; fill: none; fill-rule: nonzero; opacity: 1;" vector-effect="non-scaling-stroke" transform=" translate(-503.69, -638.26)" d="M 552.433778761062 687.0066371681417 Q 552.4247787610619 687.0066371681417 552.4247787610619 686.0508849557523 Q 552.4247787610619 685.0951327433629 551.4690265486726 685.0951327433629 Q 550.5132743362832 685.0951327433629 549.5575221238938 685.0951327433629 Q 548.6017699115044 685.0951327433629 547.6460176991151 685.0951327433629 Q 546.6902654867257 685.0951327433629 545.7345132743363 685.0951327433629 Q 544.778761061947 685.0951327433629 543.8230088495575 685.0951327433629 Q 542.8672566371681 685.0951327433629 541.9115044247787 685.0951327433629 Q 540.9557522123894 685.0951327433629 540 685.0951327433629 Q 539.0442477876106 685.0951327433629 538.0884955752213 684.1393805309735 Q 537.1327433628319 683.183628318584 535.2212389380531 683.183628318584 Q 533.3097345132744 683.183628318584 532.353982300885 682.2278761061947 Q 531.3982300884956 681.2721238938053 529.4867256637168 681.2721238938053 Q 527.5752212389381 681.2721238938053 527.5752212389381 680.316371681416 Q 527.5752212389381 679.3606194690266 525.6637168141593 679.3606194690266 Q 523.7522123893806 679.3606194690266 521.8407079646017 679.3606194690266 Q 519.929203539823 679.3606194690266 518.9734513274336 679.3606194690266 Q 518.0176991150443 679.3606194690266 517.0619469026549 678.4048672566372 Q 516.1061946902655 677.4491150442478 514.1946902654868 677.4491150442478 Q 512.283185840708 677.4491150442478 511.32743362831866 677.4491150442478 Q 510.37168141592923 677.4491150442478 509.41592920353986 676.4933628318585 Q 508.4601769911505 675.5376106194691 506.5486725663717 674.5818584070797 Q 504.63716814159295 673.6261061946904 503.6814159292036 673.6261061946904 Q 502.72566371681415 673.6261061946904 500.8141592920354 672.6703539823009 Q 498.9026548672567 671.7146017699115 496.9911504424779 671.7146017699115 Q 495.07964601769913 671.7146017699115 494.12389380530976 670.7588495575221 Q 493.1681415929204 669.8030973451328 491.25663716814165 668.8473451327434 Q 489.34513274336285 667.891592920354 488.3893805309735 666.9358407079646 Q 487.4336283185841 665.9800884955753 486.4778761061947 665.9800884955753 Q 485.5221238938053 665.9800884955753 484.56637168141594 665.0243362831859 Q 483.6106194690266 664.0685840707965 481.69911504424783 664.0685840707965 Q 479.78761061946904 664.0685840707965 478.83185840707966 663.1128318584072 Q 477.8761061946903 662.1570796460177 476.9203539823009 661.2013274336283 Q 475.96460176991155 660.2455752212389 475.0088495575221 660.2455752212389 Q 474.05309734513276 660.2455752212389 473.0973451327434 659.2898230088496 Q 472.141592920354 658.3340707964602 471.18584070796464 658.3340707964602 Q 470.2300884955752 658.3340707964602 470.2300884955752 657.3783185840708 Q 470.2300884955752 656.4225663716815 469.27433628318585 656.4225663716815 Q 468.3185840707965 656.4225663716815 468.3185840707965 655.4668141592921 Q 468.3185840707965 654.5110619469027 467.3628318584071 654.5110619469027 Q 466.40707964601773 654.5110619469027 465.4513274336283 653.5553097345133 Q 464.49557522123894 652.599557522124 464.49557522123894 651.6438053097345 Q 464.49557522123894 650.6880530973451 463.53982300884957 649.7323008849557 Q 462.5840707964602 648.7765486725664 462.5840707964602 647.820796460177 Q 462.5840707964602 646.8650442477876 461.6283185840708 644.9535398230089 Q 460.67256637168146 643.0420353982302 459.7168141592921 642.0862831858408 Q 458.76106194690266 641.1305309734513 457.8053097345133 640.1747787610619 Q 456.8495575221239 639.2190265486726 456.8495575221239 638.2632743362832 Q 456.8495575221239 637.3075221238938 456.8495575221239 636.3517699115044 Q 456.8495575221239 635.3960176991151 456.8495575221239 634.4402654867257 Q 456.8495575221239 633.4845132743363 455.89380530973455 633.4845132743363 Q 454.9380530973452 633.4845132743363 454.9380530973452 632.528761061947 Q 454.9380530973452 631.5730088495576 454.9380530973452 630.6172566371681 Q 454.9380530973452 629.6615044247787 454.9380530973452 628.7057522123894 Q 454.9380530973452 627.75 454.9380530973452 626.7942477876106 Q 454.9380530973452 625.8384955752213 454.9380530973452 624.8827433628319 Q 454.9380530973452 623.9269911504425 454.9380530973452 622.9712389380531 Q 454.9380530973452 622.0154867256638 454.9380530973452 621.0597345132744 Q 454.9380530973452 620.103982300885 454.9380530973452 619.1482300884957 Q 454.9380530973452 618.1924778761062 455.89380530973455 618.1924778761062 Q 456.8495575221239 618.1924778761062 457.8053097345133 618.1924778761062 Q 458.76106194690266 618.1924778761062 458.76106194690266 617.2367256637168 Q 458.76106194690266 616.2809734513274 459.7168141592921 616.2809734513274 Q 460.67256637168146 616.2809734513274 461.6283185840708 615.3252212389381 Q 462.5840707964602 614.3694690265487 464.49557522123894 614.3694690265487 Q 466.40707964601773 614.3694690265487 466.40707964601773 613.4137168141593 Q 466.40707964601773 612.45796460177 467.3628318584071 611.5022123893806 Q 468.3185840707965 610.5464601769912 469.27433628318585 610.5464601769912 Q 470.2300884955752 610.5464601769912 471.18584070796464 610.5464601769912 Q 472.141592920354 610.5464601769912 473.0973451327434 609.5907079646017 Q 474.05309734513276 608.6349557522124 475.9646017699115 608.6349557522124 Q 477.8761061946903 608.6349557522124 478.83185840707966 607.679203539823 Q 479.78761061946904 606.7234513274336 481.69911504424783 606.7234513274336 Q 483.6106194690266 606.7234513274336 485.5221238938053 606.7234513274336 Q 487.4336283185841 606.7234513274336 489.34513274336285 605.7676991150443 Q 491.2566371681416 604.8119469026549 492.212389380531 604.8119469026549 Q 493.1681415929204 604.8119469026549 494.12389380530976 603.8561946902655 Q 495.07964601769913 602.9004424778761 496.9911504424779 602.9004424778761 Q 498.9026548672567 602.9004424778761 500.8141592920354 602.9004424778761 Q 502.72566371681415 602.9004424778761 504.63716814159295 601.9446902654868 Q 506.5486725663717 600.9889380530974 508.46017699115043 600.9889380530974 Q 510.37168141592923 600.9889380530974 512.283185840708 600.9889380530974 Q 514.1946902654868 600.9889380530974 516.1061946902655 600.033185840708 Q 518.0176991150443 599.0774336283187 519.929203539823 599.0774336283187 Q 521.8407079646018 599.0774336283187 522.7964601769912 598.1216814159293 Q 523.7522123893806 597.1659292035398 523.7522123893806 596.2101769911504 Q 523.7522123893806 595.2544247787611 524.70796460177 595.2544247787611 Q 525.6637168141593 595.2544247787611 526.6194690265487 595.2544247787611 Q 527.5752212389381 595.2544247787611 528.5309734513274 595.2544247787611 Q 529.4867256637168 595.2544247787611 530.4424778761062 594.2986725663717 Q 531.3982300884956 593.3429203539823 532.353982300885 593.3429203539823 Q 533.3097345132744 593.3429203539823 535.2212389380531 593.3429203539823 Q 537.1327433628319 593.3429203539823 538.0884955752213 592.387168141593 Q 539.0442477876106 591.4314159292036 540 591.4314159292036 Q 540.9557522123894 591.4314159292036 541.9115044247787 591.4314159292036 Q 542.8672566371681 591.4314159292036 543.8230088495575 591.4314159292036 Q 544.778761061947 591.4314159292036 544.778761061947 590.4756637168142 L 544.778761061947 589.5109115044248" stroke-linecap="round"/>
</g></svg>