<svg xmlns="http://www.w3.org/2000/svg" xmlns:xlink="http://www.w3.org/1999/xlink" version="1.1" width="1080" height="1080" viewBox="0 0 1080 1080" xml:space="preserve"><g xmlns="http://www.w3.org/2000/svg" transform="matrix(1 0 0 1 626.02 634.44)">
<path style="stroke: rgb(0,0,0); stroke-width: 9; stroke-dasharray: none; stroke-linecap: round; stroke-dashoffset: 0; stroke-linejoin: round; stroke-miterlimit: 10; fill: none; fill-rule: nonzero; opacity: 1;" vector-effect="non-scaling-stroke" transform=" translate(-626.01, -634.44)" d="M 552.4157787610619 681.2721238938053 Q 552.4247787610619 681.2721238938053 554.3362831858408 681.2721238938053 Q 556.2477876106195 681.2721238938053 558.1592920353983 681.2721238938053 Q 560.070796460177 681.2721238938053 564.8495575221239 681.2721238938053 Q 569.6283185840708 681.2721238938053 575.3628318584072 681.2721238938053 Q 581.0973451327434 681.2721238938053 588.7433628318583 680.316371681416 Q 596.3893805309734 679.3606194690266 604.0353982300885 677.4491150442478 Q 611.6814159292036 675.5376106194691 618.3716814159293 674.5818584070797 Q 625.0619469026549 673.6261061946904 630.7964601769911 672.6703539823009 Q 636.5309734513274 671.7146017699115 640.353982300885 670.7588495575221 Q 644.1769911504425 669.8030973451328 647.0442477876106 668.8473451327434 Q 649.9115044247787 667.891592920354 652.7787610619469 667.891592920354 Q 655.6460176991151 667.891592920354 657.5575221238938 666.9358407079646 Q 659.4690265486726 665.9800884955753 662.3362831858408 665.9800884955753 Q 665.2035398230089 665.9800884955753 668.070796460177 665.0243362831859 Q 670.9380530973451 664.0685840707965 672.8495575221239 663.1128318584072 Q 674.7610619469027 662.1570796460177 676.6725663716815 661.2013274336283 Q 678.5840707964602 660.2455752212389 681.4513274336284 659.2898230088496 Q 684.3185840707965 658.3340707964602 685.2743362831859 658.3340707964602 Q 686.2300884955753 658.3340707964602 687.1858407079646 657.3783185840708 Q 688.141592920354 656.4225663716815 689.0973451327434 656.4225663716815 Q 690.0530973451328 656.4225663716815 691.0088495575221 655.4668141592921 Q 691.9646017699115 654.5110619469027 692.9203539823009 653.5553097345133 Q 693.8761061946904 652.599557522124 693.8761061946904 651.6438053097345 Q 693.8761061946904 650.6880530973451 694.8318584070797 649.7323008849557 Q 695.7876106194691 648.7765486725664 695.7876106194691 646.8650442477876 Q 695.7876106194691 644.9535398230089 696.7433628318585 643.9977876106195 Q 697.6991150442478 643.0420353982302 698.6548672566372 642.0862831858408 Q 699.6106194690266 641.1305309734513 699.6106194690266 639.2190265486726 Q 699.6106194690266 637.3075221238938 699.6106194690266 636.3517699115044 Q 699.6106194690266 635.3960176991151 699.6106194690266 633.4845132743363 Q 699.6106194690266 631.5730088495576 699.6106194690266 630.6172566371681 Q 699.6106194690266 629.6615044247787 699.6106194690266 628.7057522123894 Q 699.6106194690266 627.75 699.6106194690266 626.7942477876106 Q 699.6106194690266 625.8384955752213 698.6548672566372 623.9269911504425 Q 697.6991150442478 622.0154867256638 697.6991150442478 621.0597345132744 Q 697.6991150442478 620.103982300885 696.7433628318585 620.103982300885 Q 695.7876106194691 620.103982300885 694.8318584070797 619.1482300884957 Q 693.8761061946904 618.1924778761062 693.8761061946904 617.2367256637168 Q 693.8761061946904 616.2809734513274 691.9646017699115 615.3252212389381 Q 690.0530973451328 614.3694690265487 689.0973451327434 613.4137168141593 Q 688.141592920354 612.45796460177 687.1858407079646 611.5022123893806 Q 686.2300884955753 610.5464601769912 685.2743362831859 610.5464601769912 Q 684.3185840707965 610.5464601769912 683.3628318584072 610.5464601769912 Q 682.4070796460177 610.5464601769912 681.4513274336283 609.5907079646017 Q 680.4955752212389 608.6349557522124 679.5398230088496 608.6349557522124 Q 678.5840707964602 608.6349557522124 677.6283185840708 607.679203539823 Q 676.6725663716815 606.7234513274336 675.7168141592921 606.7234513274336 Q 674.7610619469027 606.7234513274336 673.8053097345133 605.7676991150443 Q 672.849557522124 604.8119469026549 671.8938053097345 604.8119469026549 Q 670.9380530973451 604.8119469026549 669.0265486725664 603.8561946902655 Q 667.1150442477876 602.9004424778761 665.2035398230089 602.9004424778761 Q 663.2920353982302 602.9004424778761 662.3362831858408 601.9446902654868 Q 661.3805309734513 600.9889380530974 658.5132743362832 600.9889380530974 Q 655.6460176991151 600.9889380530974 653.7345132743363 600.033185840708 Q 651.8230088495576 599.0774336283187 649.9115044247787 598.1216814159293 Q 648 597.1659292035398 646.0884955752213 597.1659292035398 Q 644.1769911504425 597.1659292035398 642.2654867256638 596.2101769911504 Q 640.353982300885 595.2544247787611 638.4424778761063 595.2544247787611 Q 636.5309734513274 595.2544247787611 634.6194690265487 595.2544247787611 Q 632.70796460177 595.2544247787611 631.7522123893806 595.2544247787611 Q 630.7964601769912 595.2544247787611 628.8849557522124 594.2986725663717 Q 626.9734513274336 593.3429203539823 625.0619469026549 593.3429203539823 Q 623.1504424778761 593.3429203539823 621.2389380530974 593.3429203539823 Q 619.3274336283187 593.3429203539823 618.3716814159293 593.3429203539823 Q 617.4159292035398 593.3429203539823 615.5044247787611 593.3429203539823 Q 613.5929203539823 593.3429203539823 611.6814159292036 593.3429203539823 Q 609.7699115044248 593.3429203539823 608.8141592920355 593.3429203539823 Q 607.8584070796461 593.3429203539823 606.9026548672566 593.3429203539823 Q 605.9469026548672 593.3429203539823 604.0353982300885 593.3429203539823 Q 602.1238938053098 593.3429203539823 601.1681415929204 592.387168141593 Q 600.212389380531 591.4314159292036 599.2566371681417 591.4314159292036 Q 598.3008849557523 591.4314159292036 597.3451327433629 591.4314159292036 Q 596.3893805309734 591.4314159292036 594.4778761061947 591.4314159292036 Q 592.566371681416 591.4314159292036 591.6106194690266 591.4314159292036 Q 590.6548672566372 591.4314159292036 589.6991150442478 591.4314159292036 Q 588.7433628318585 591.4314159292036 587.7876106194691 591.4314159292036 Q 586.8318584070797 591.4314159292036 585.8761061946902 591.4314159292036 Q 584.9203539823009 591.4314159292036 583.9646017699115 590.4756637168142 Q 583.0088495575221 589.5199115044248 582.0530973451328 589.5199115044248 Q 581.0973451327434 589.5199115044248 580.141592920354 589.5199115044248 Q 579.1858407079646 589.5199115044248 578.2300884955753 589.5199115044248 Q 577.2743362831859 589.5199115044248 576.3185840707965 589.5199115044248 Q 575.362831858407 589.5199115044248 574.4070796460177 588.5641592920355 L 573.4423274336283 587.5994070796461" stroke-linecap="round"/>
</g></svg>