<svg xmlns="http://www.w3.org/2000/svg" xmlns:xlink="http://www.w3.org/1999/xlink" version="1.1" width="1080" height="1080" viewBox="0 0 1080 1080" xml:space="preserve"><g xmlns="http://www.w3.org/2000/svg" transform="matrix(1 0 0 1 564.85 222.51)">
<path style="stroke: rgb(0,0,0); stroke-width: 30; stroke-dasharray: none; stroke-linecap: round; stroke-dashoffset: 0; stroke-linejoin: round; stroke-miterlimit: 10; fill: none; fill-rule: nonzero; opacity: 1;" vector-effect="non-scaling-stroke" transform=" translate(-564.85, -222.51)" d="M 565.8053097345133 172.78194690265488 Q 565.8053097345133 172.81194690265488 565.8053097345133 173.76769911504425 Q 565.8053097345133 174.72345132743362 565.8053097345133 175.679203539823 Q 565.8053097345133 176.6349557522124 564.8495575221239 179.50221238938053 Q 563.8938053097345 182.36946902654867 563.8938053097345 185.2367256637168 Q 563.8938053097345 188.10398230088495 563.8938053097345 191.92699115044246 Q 563.8938053097345 195.75 563.8938053097345 201.48451327433628 Q 563.8938053097345 207.2190265486726 563.8938053097345 211.0420353982301 Q 563.8938053097345 214.8650442477876 563.8938053097345 218.68805309734512 Q 563.8938053097345 222.51106194690266 563.8938053097345 225.3783185840708 Q 563.8938053097345 228.24557522123894 563.8938053097345 230.1570796460177 Q 563.8938053097345 232.06858407079648 563.8938053097345 233.98008849557522 Q 563.8938053097345 235.891592920354 563.8938053097345 238.75884955752213 Q 563.8938053097345 241.62610619469027 563.8938053097345 245.44911504424778 Q 563.8938053097345 249.27212389380531 563.8938053097345 252.13938053097345 Q 563.8938053097345 255.0066371681416 563.8938053097345 258.82964601769913 Q 563.8938053097345 262.6526548672567 563.8938053097345 265.51991150442484 Q 563.8938053097345 268.38716814159295 563.8938053097345 269.3429203539823 Q 563.8938053097345 270.2986725663717 563.8938053097345 271.25442477876106 L 563.8938053097345 272.2401769911504" stroke-linecap="round"/>
</g></svg>