<svg xmlns="http://www.w3.org/2000/svg" xmlns:xlink="http://www.w3.org/1999/xlink" version="1.1" width="1080" height="1080" viewBox="0 0 1080 1080" xml:space="preserve"><g xmlns="http://www.w3.org/2000/svg" transform="matrix(1 0 0 1 567.72 456.67)">
<path style="stroke: rgb(0,0,0); stroke-width: 9; stroke-dasharray: none; stroke-linecap: round; stroke-dashoffset: 0; stroke-linejoin: round; stroke-miterlimit: 10; fill: none; fill-rule: nonzero; opacity: 1;" vector-effect="non-scaling-stroke" transform=" translate(-567.72, -456.67)" d="M 581.1063451327434 329.5553097345133 Q 581.0973451327434 329.5553097345133 580.141592920354 329.5553097345133 Q 579.1858407079646 329.5553097345133 578.2300884955753 329.5553097345133 Q 577.2743362831859 329.5553097345133 576.3185840707965 329.5553097345133 Q 575.362831858407 329.5553097345133 574.4070796460177 329.5553097345133 Q 573.4513274336283 329.5553097345133 572.4955752212389 329.5553097345133 Q 571.5398230088496 329.5553097345133 569.6283185840708 329.5553097345133 Q 567.7168141592921 329.5553097345133 565.8053097345132 329.5553097345133 Q 563.8938053097345 329.5553097345133 562.9380530973451 330.51106194690266 Q 561.9823008849557 331.466814159292 560.070796460177 331.466814159292 Q 558.1592920353983 331.466814159292 557.2035398230089 331.466814159292 Q 556.2477876106195 331.466814159292 555.2920353982302 332.42256637168146 Q 554.3362831858408 333.3783185840708 552.424778761062 333.3783185840708 Q 550.5132743362832 333.3783185840708 549.5575221238938 333.3783185840708 Q 548.6017699115044 333.3783185840708 546.6902654867257 335.28982300884957 Q 544.778761061947 337.2013274336283 541.9115044247787 337.2013274336283 Q 539.0442477876106 337.2013274336283 537.1327433628319 338.1570796460177 Q 535.2212389380531 339.1128318584071 532.353982300885 340.0685840707965 Q 529.4867256637168 341.02433628318585 526.6194690265487 341.02433628318585 Q 523.7522123893806 341.02433628318585 520.8849557522124 342.93584070796464 Q 518.0176991150443 344.8473451327434 516.1061946902655 344.8473451327434 Q 514.1946902654868 344.8473451327434 512.283185840708 345.80309734513276 Q 510.37168141592923 346.7588495575221 508.46017699115043 347.7146017699115 Q 506.5486725663717 348.6703539823009 503.6814159292036 350.58185840707966 Q 500.8141592920354 352.4933628318584 498.9026548672566 353.44911504424783 Q 496.9911504424779 354.4048672566372 494.12389380530976 355.3606194690266 Q 491.2566371681416 356.31637168141594 488.3893805309734 358.2278761061947 Q 485.5221238938053 360.1393805309735 483.6106194690266 361.09513274336285 Q 481.69911504424783 362.0508849557522 479.7876106194691 363.962389380531 Q 477.8761061946903 365.87389380530976 476.9203539823009 366.82964601769913 Q 475.96460176991155 367.7853982300885 473.0973451327434 369.69690265486724 Q 470.2300884955752 371.60840707964604 469.27433628318585 373.51991150442484 Q 468.3185840707965 375.4314159292036 466.4070796460177 376.38716814159295 Q 464.49557522123894 377.3429203539823 462.5840707964602 379.25442477876106 Q 460.67256637168146 381.16592920353986 458.7610619469027 384.03318584070803 Q 456.8495575221239 386.90044247787614 454.9380530973451 389.76769911504425 Q 453.0265486725664 392.6349557522124 452.070796460177 394.54646017699116 Q 451.11504424778764 396.4579646017699 449.2035398230089 399.32522123893807 Q 447.2920353982301 402.19247787610624 445.3805309734513 405.0597345132744 Q 443.46902654867256 407.9269911504425 443.46902654867256 409.83849557522126 Q 443.46902654867256 411.75 441.5575221238938 413.66150442477874 Q 439.6460176991151 415.57300884955754 438.6902654867257 417.48451327433634 Q 437.7345132743363 419.3960176991151 437.7345132743363 422.2632743362832 Q 437.7345132743363 425.13053097345136 436.7787610619469 427.9977876106195 Q 435.82300884955754 430.86504424778764 434.86725663716817 432.7765486725664 Q 433.9115044247788 434.6880530973452 432.95575221238937 437.55530973451334 Q 432 440.42256637168146 431.04424778761063 443.28982300884957 Q 430.08849557522126 446.15707964601773 430.08849557522126 448.0685840707965 Q 430.08849557522126 449.9800884955752 429.1327433628319 452.8473451327434 Q 428.1769911504425 455.7146017699115 428.1769911504425 457.62610619469024 Q 428.1769911504425 459.53761061946904 428.1769911504425 462.4048672566372 Q 428.1769911504425 465.2721238938053 428.1769911504425 468.1393805309734 Q 428.1769911504425 471.0066371681416 428.1769911504425 472.9181415929204 Q 428.1769911504425 474.82964601769913 428.1769911504425 477.69690265486724 Q 428.1769911504425 480.5641592920354 428.1769911504425 481.5199115044248 Q 428.1769911504425 482.47566371681415 427.22123893805315 484.38716814159295 Q 426.2654867256637 486.2986725663717 426.2654867256637 488.21017699115043 Q 426.2654867256637 490.12168141592923 426.2654867256637 492.03318584070803 Q 426.2654867256637 493.94469026548677 426.2654867256637 494.90044247787614 Q 426.2654867256637 495.8561946902655 426.2654867256637 497.76769911504425 Q 426.2654867256637 499.67920353982305 426.2654867256637 501.5907079646018 Q 426.2654867256637 503.50221238938053 427.22123893805315 505.41371681415933 Q 428.1769911504425 507.32522123893807 428.1769911504425 509.2367256637168 Q 428.1769911504425 511.1482300884956 429.1327433628319 513.0597345132744 Q 430.08849557522126 514.9712389380531 432 516.8827433628319 Q 433.9115044247788 518.7942477876106 433.9115044247788 520.7057522123894 Q 433.9115044247788 522.6172566371681 434.86725663716817 524.5287610619469 Q 435.82300884955754 526.4402654867257 436.7787610619469 527.3960176991151 Q 437.7345132743363 528.3517699115044 438.6902654867257 530.2632743362832 Q 439.6460176991151 532.1747787610619 441.5575221238938 534.0862831858408 Q 443.46902654867256 535.9977876106195 444.42477876106193 537.9092920353983 Q 445.38053097345136 539.820796460177 448.2477876106195 541.7323008849557 Q 451.11504424778764 543.6438053097345 453.0265486725664 546.5110619469026 Q 454.9380530973452 549.3783185840708 456.8495575221239 551.2898230088496 Q 458.76106194690266 553.2013274336283 461.6283185840708 555.1128318584072 Q 464.49557522123894 557.0243362831859 466.4070796460177 557.9800884955753 Q 468.3185840707965 558.9358407079646 470.2300884955753 560.8473451327434 Q 472.141592920354 562.7588495575221 474.05309734513276 563.7146017699115 Q 475.96460176991155 564.6703539823009 477.8761061946903 566.5818584070796 Q 479.78761061946904 568.4933628318585 482.6548672566372 569.4491150442478 Q 485.5221238938053 570.4048672566372 488.3893805309734 571.3606194690266 Q 491.2566371681416 572.316371681416 494.12389380530976 573.2721238938053 Q 496.9911504424779 574.2278761061947 500.8141592920354 575.183628318584 Q 504.63716814159295 576.1393805309734 507.50442477876106 577.0951327433629 Q 510.37168141592923 578.0508849557523 514.1946902654868 579.962389380531 Q 518.0176991150443 581.8738938053098 520.8849557522124 582.8296460176991 Q 523.7522123893806 583.7853982300885 528.5309734513276 583.7853982300885 Q 533.3097345132744 583.7853982300885 538.0884955752213 583.7853982300885 Q 542.8672566371681 583.7853982300885 545.7345132743362 583.7853982300885 Q 548.6017699115044 583.7853982300885 552.424778761062 584.7411504424779 Q 556.2477876106195 585.6969026548672 561.0265486725664 585.6969026548672 Q 565.8053097345133 585.6969026548672 569.6283185840708 585.6969026548672 Q 573.4513274336283 585.6969026548672 577.2743362831859 585.6969026548672 Q 581.0973451327434 585.6969026548672 584.9203539823009 584.7411504424779 Q 588.7433628318585 583.7853982300885 591.6106194690266 583.7853982300885 Q 594.4778761061947 583.7853982300885 598.3008849557523 582.8296460176991 Q 602.1238938053098 581.8738938053098 604.9911504424779 580.9181415929204 Q 607.8584070796461 579.962389380531 610.7256637168142 579.0066371681417 Q 613.5929203539823 578.0508849557523 616.4601769911505 578.0508849557523 Q 619.3274336283187 578.0508849557523 623.1504424778761 577.0951327433629 Q 626.9734513274336 576.1393805309734 630.7964601769911 574.2278761061947 Q 634.6194690265487 572.316371681416 638.4424778761063 571.3606194690266 Q 642.2654867256638 570.4048672566372 646.0884955752213 569.4491150442478 Q 649.9115044247787 568.4933628318585 652.7787610619469 567.5376106194691 Q 655.6460176991151 566.5818584070797 659.4690265486727 564.6703539823009 Q 663.2920353982302 562.7588495575221 666.1592920353983 560.8473451327434 Q 669.0265486725664 558.9358407079646 670.9380530973451 557.0243362831859 Q 672.849557522124 555.112831858407 675.7168141592921 553.2013274336283 Q 678.5840707964602 551.2898230088496 680.4955752212389 549.3783185840708 Q 682.4070796460177 547.4668141592921 685.2743362831859 544.5995575221239 Q 688.141592920354 541.7323008849557 690.0530973451328 538.8650442477876 Q 691.9646017699115 535.9977876106195 693.8761061946902 533.1305309734514 Q 695.7876106194691 530.2632743362832 696.7433628318585 528.3517699115044 Q 697.6991150442478 526.4402654867257 698.6548672566372 523.5730088495575 Q 699.6106194690266 520.7057522123894 700.566371681416 517.8384955752213 Q 701.5221238938053 514.9712389380531 702.4778761061947 512.103982300885 Q 703.433628318584 509.2367256637168 704.3893805309735 507.32522123893807 Q 705.3451327433629 505.41371681415933 706.3008849557523 502.5464601769912 Q 707.2566371681417 499.67920353982305 708.212389380531 495.8561946902655 Q 709.1681415929204 492.033185840708 709.1681415929204 489.1659292035398 Q 709.1681415929204 486.2986725663717 709.1681415929204 484.38716814159295 Q 709.1681415929204 482.47566371681415 709.1681415929204 479.608407079646 Q 709.1681415929204 476.7411504424779 709.1681415929204 474.82964601769913 Q 709.1681415929204 472.9181415929204 709.1681415929204 470.0508849557523 Q 709.1681415929204 467.1836283185841 709.1681415929204 464.31637168141594 Q 709.1681415929204 461.44911504424783 708.212389380531 459.5376106194691 Q 707.2566371681417 457.6261061946903 707.2566371681417 454.7588495575221 Q 707.2566371681417 451.891592920354 707.2566371681417 449.0243362831859 Q 707.2566371681417 446.15707964601773 706.3008849557523 443.28982300884957 Q 705.3451327433629 440.42256637168146 704.3893805309735 437.55530973451334 Q 703.433628318584 434.6880530973452 702.4778761061947 431.820796460177 Q 701.5221238938053 428.9535398230089 700.566371681416 426.0862831858407 Q 699.6106194690266 423.21902654867256 699.6106194690266 422.2632743362832 Q 699.6106194690266 421.3075221238938 698.6548672566372 418.4402654867257 Q 697.6991150442478 415.57300884955754 696.7433628318585 413.66150442477874 Q 695.7876106194691 411.75 694.8318584070797 409.83849557522126 Q 693.8761061946904 407.9269911504425 692.9203539823009 406.0154867256638 Q 691.9646017699115 404.103982300885 691.0088495575221 400.28097345132744 Q 690.0530973451328 396.4579646017699 689.0973451327434 395.50221238938053 Q 688.141592920354 394.54646017699116 688.141592920354 392.63495575221236 Q 688.141592920354 390.7234513274336 686.2300884955753 388.8119469026549 Q 684.3185840707965 386.90044247787614 684.3185840707965 384.9889380530974 Q 684.3185840707965 383.0774336283186 683.3628318584072 382.12168141592923 Q 682.4070796460177 381.16592920353986 682.4070796460177 380.21017699115043 Q 682.4070796460177 379.25442477876106 681.4513274336283 378.2986725663717 Q 680.4955752212389 377.3429203539823 679.5398230088496 375.4314159292036 Q 678.5840707964602 373.5199115044248 677.6283185840708 372.5641592920354 Q 676.6725663716815 371.60840707964604 675.7168141592921 369.69690265486724 Q 674.7610619469027 367.7853982300885 673.8053097345133 366.82964601769913 Q 672.849557522124 365.87389380530976 670.9380530973451 364.9181415929204 Q 669.0265486725664 363.96238938053096 668.070796460177 362.0508849557522 Q 667.1150442477876 360.1393805309735 666.1592920353983 359.18362831858406 Q 665.2035398230089 358.2278761061947 664.2477876106195 358.2278761061947 Q 663.2920353982302 358.2278761061947 662.3362831858408 357.2721238938053 Q 661.3805309734513 356.31637168141594 660.4247787610619 355.3606194690266 Q 659.4690265486726 354.4048672566372 658.5132743362832 353.44911504424783 Q 657.5575221238938 352.4933628318584 656.6017699115044 351.53761061946904 Q 655.6460176991151 350.58185840707966 654.6902654867257 349.6261061946903 Q 653.7345132743363 348.6703539823009 652.778761061947 348.6703539823009 Q 651.8230088495576 348.6703539823009 650.8672566371681 347.7146017699115 Q 649.9115044247787 346.7588495575221 648.9557522123894 346.7588495575221 Q 648 346.7588495575221 646.0884955752213 344.8473451327434 Q 644.1769911504425 342.93584070796464 643.2212389380531 341.9800884955753 Q 642.2654867256638 341.02433628318585 641.3097345132744 341.02433628318585 Q 640.353982300885 341.02433628318585 638.4424778761063 340.0685840707965 Q 636.5309734513274 339.1128318584071 635.5752212389381 339.1128318584071 Q 634.6194690265487 339.1128318584071 633.6637168141593 339.1128318584071 Q 632.70796460177 339.1128318584071 630.7964601769911 338.1570796460177 Q 628.8849557522124 337.2013274336283 627.929203539823 336.24557522123894 Q 626.9734513274336 335.28982300884957 626.0176991150443 335.28982300884957 Q 625.0619469026549 335.28982300884957 624.1061946902655 335.28982300884957 Q 623.1504424778761 335.28982300884957 621.2389380530974 335.28982300884957 Q 619.3274336283187 335.28982300884957 618.3716814159293 335.28982300884957 Q 617.4159292035398 335.28982300884957 616.4601769911504 334.3340707964602 Q 615.5044247787611 333.3783185840708 614.5486725663717 333.3783185840708 Q 613.5929203539823 333.3783185840708 612.637168141593 333.3783185840708 Q 611.6814159292036 333.3783185840708 610.7256637168142 333.3783185840708 Q 609.7699115044248 333.3783185840708 608.8141592920355 333.3783185840708 Q 607.8584070796461 333.3783185840708 606.9026548672566 333.3783185840708 Q 605.9469026548672 333.3783185840708 604.9911504424779 333.3783185840708 Q 604.0353982300885 333.3783185840708 603.0796460176991 333.3783185840708 Q 602.1238938053098 333.3783185840708 601.1681415929204 332.42256637168146 Q 600.212389380531 331.466814159292 599.2566371681417 331.466814159292 Q 598.3008849557523 331.466814159292 597.3451327433629 331.466814159292 Q 596.3893805309734 331.466814159292 595.433628318584 331.466814159292 Q 594.4778761061947 331.466814159292 593.5221238938053 331.466814159292 Q 592.566371681416 331.466814159292 591.6106194690266 331.466814159292 Q 590.6548672566372 331.466814159292 589.6991150442478 331.466814159292 Q 588.7433628318585 331.466814159292 588.7433628318585 330.51106194690266 Q 588.7433628318585 329.5553097345133 587.7876106194691 329.5553097345133 Q 586.8318584070797 329.5553097345133 585.8761061946902 329.5553097345133 Q 584.9203539823009 329.5553097345133 583.9646017699115 329.5553097345133 Q 583.0088495575221 329.5553097345133 582.0530973451328 329.5553097345133 Q 581.0973451327434 329.5553097345133 581.0973451327434 328.5995575221239 Q 581.0973451327434 327.64380530973455 580.141592920354 327.64380530973455 Q 579.1858407079646 327.64380530973455 578.2300884955753 327.64380530973455 Q 577.2743362831859 327.64380530973455 576.3185840707965 327.64380530973455 Q 575.362831858407 327.64380530973455 574.4070796460177 327.64380530973455 Q 573.4513274336283 327.64380530973455 572.4955752212389 327.64380530973455 Q 571.5398230088496 327.64380530973455 570.5840707964602 327.64380530973455 Q 569.6283185840708 327.64380530973455 568.6725663716815 327.64380530973455 Q 567.7168141592921 327.64380530973455 566.7610619469027 327.64380530973455 Q 565.8053097345133 327.64380530973455 564.8495575221239 327.64380530973455 Q 563.8938053097345 327.64380530973455 562.9380530973451 327.64380530973455 Q 561.9823008849557 327.64380530973455 561.0265486725664 327.64380530973455 Q 560.070796460177 327.64380530973455 559.1150442477876 327.64380530973455 Q 558.1592920353983 327.64380530973455 557.2035398230089 327.64380530973455 Q 556.2477876106195 327.64380530973455 555.2920353982302 327.64380530973455 Q 554.3362831858408 327.64380530973455 554.3362831858408 328.5995575221239 Q 554.3362831858408 329.5553097345133 553.3805309734514 329.5553097345133 L 552.4157787610619 329.5553097345133" stroke-linecap="round"/>
</g></svg>