<svg xmlns="http://www.w3.org/2000/svg" xmlns:xlink="http://www.w3.org/1999/xlink" version="1.1" width="1080" height="1080" viewBox="0 0 1080 1080" xml:space="preserve"><g xmlns="http://www.w3.org/2000/svg" transform="matrix(1 0 0 1 557.2 681.27)">
<path style="stroke: rgb(0,0,0); stroke-width: 9; stroke-dasharray: none; stroke-linecap: round; stroke-dashoffset: 0; stroke-linejoin: round; stroke-miterlimit: 10; fill: none; fill-rule: nonzero; opacity: 1;" vector-effect="non-scaling-stroke" transform=" translate(-557.2, -681.27)" d="M 561.9823008849557 585.6879026548672 Q 561.9823008849557 585.6969026548672 561.0265486725664 586.6526548672566 Q 560.070796460177 587.6084070796461 560.070796460177 589.5199115044248 Q 560.070796460177 591.4314159292036 560.070796460177 593.3429203539823 Q 560.070796460177 595.2544247787611 560.070796460177 597.1659292035399 Q 560.070796460177 599.0774336283187 559.1150442477876 600.9889380530974 Q 558.1592920353983 602.9004424778761 558.1592920353983 604.8119469026549 Q 558.1592920353983 606.7234513274336 558.1592920353983 607.679203539823 Q 558.1592920353983 608.6349557522124 558.1592920353983 610.5464601769911 Q 558.1592920353983 612.45796460177 557.2035398230089 614.3694690265487 Q 556.2477876106195 616.2809734513274 556.2477876106195 618.1924778761063 Q 556.2477876106195 620.103982300885 556.2477876106195 621.0597345132744 Q 556.2477876106195 622.0154867256638 556.2477876106195 622.9712389380531 Q 556.2477876106195 623.9269911504425 556.2477876106195 625.8384955752213 Q 556.2477876106195 627.75 555.2920353982302 628.7057522123894 Q 554.3362831858408 629.6615044247787 554.3362831858408 630.6172566371681 Q 554.3362831858408 631.5730088495576 554.3362831858408 633.4845132743363 Q 554.3362831858408 635.3960176991151 554.3362831858408 636.3517699115044 Q 554.3362831858408 637.3075221238938 554.3362831858408 638.2632743362832 Q 554.3362831858408 639.2190265486726 554.3362831858408 641.1305309734514 Q 554.3362831858408 643.0420353982302 553.3805309734514 644.9535398230089 Q 552.4247787610619 646.8650442477876 552.4247787610619 648.7765486725664 Q 552.4247787610619 650.6880530973451 552.4247787610619 653.5553097345132 Q 552.4247787610619 656.4225663716815 552.4247787610619 658.3340707964602 Q 552.4247787610619 660.2455752212389 552.4247787610619 663.1128318584072 Q 552.4247787610619 665.9800884955753 552.4247787610619 667.891592920354 Q 552.4247787610619 669.8030973451328 552.4247787610619 670.7588495575221 Q 552.4247787610619 671.7146017699115 552.4247787610619 672.6703539823009 Q 552.4247787610619 673.6261061946904 552.4247787610619 675.5376106194691 Q 552.4247787610619 677.4491150442478 552.4247787610619 678.4048672566372 Q 552.4247787610619 679.3606194690266 552.4247787610619 681.2721238938053 Q 552.4247787610619 683.183628318584 552.4247787610619 685.0951327433629 Q 552.4247787610619 687.0066371681417 552.4247787610619 689.8738938053098 Q 552.4247787610619 692.7411504424779 552.4247787610619 695.608407079646 Q 552.4247787610619 698.4756637168142 552.4247787610619 701.3429203539823 Q 552.4247787610619 704.2101769911504 552.4247787610619 706.1216814159293 Q 552.4247787610619 708.033185840708 552.4247787610619 710.9004424778761 Q 552.4247787610619 713.7676991150443 552.4247787610619 715.679203539823 Q 552.4247787610619 717.5907079646018 552.4247787610619 720.45796460177 Q 552.4247787610619 723.3252212389381 552.4247787610619 726.1924778761063 Q 552.4247787610619 729.0597345132744 552.4247787610619 730.9712389380531 Q 552.4247787610619 732.8827433628319 552.4247787610619 735.75 Q 552.4247787610619 738.6172566371682 552.4247787610619 740.528761061947 Q 552.4247787610619 742.4402654867257 552.4247787610619 745.3075221238938 Q 552.4247787610619 748.1747787610619 552.4247787610619 750.0862831858408 Q 552.4247787610619 751.9977876106195 552.4247787610619 753.9092920353983 Q 552.4247787610619 755.820796460177 552.4247787610619 756.7765486725664 Q 552.4247787610619 757.7323008849557 552.4247787610619 759.6438053097345 Q 552.4247787610619 761.5553097345133 552.4247787610619 763.4668141592921 Q 552.4247787610619 765.3783185840708 552.4247787610619 766.3340707964602 Q 552.4247787610619 767.2898230088496 552.4247787610619 768.2455752212389 Q 552.4247787610619 769.2013274336283 552.4247787610619 770.1570796460178 Q 552.4247787610619 771.1128318584072 552.4247787610619 772.0685840707965 Q 552.4247787610619 773.0243362831859 552.4247787610619 773.9800884955753 Q 552.4247787610619 774.9358407079646 552.4247787610619 775.891592920354 L 552.4247787610619 776.8563451327434" stroke-linecap="round"/>
</g></svg>