<svg xmlns="http://www.w3.org/2000/svg" xmlns:xlink="http://www.w3.org/1999/xlink" version="1.1" width="1080" height="1080" viewBox="0 0 1080 1080" xml:space="preserve"><g xmlns="http://www.w3.org/2000/svg" transform="matrix(1 0 0 1 481.7 838.97)">
<path style="stroke: rgb(0,0,0); stroke-width: 9; stroke-dasharray: none; stroke-linecap: round; stroke-dashoffset: 0; stroke-linejoin: round; stroke-miterlimit: 10; fill: none; fill-rule: nonzero; opacity: 1;" vector-effect="non-scaling-stroke" transform=" translate(-481.7, -838.97)" d="M 550.5222743362832 774.9268407079646 Q 550.5132743362832 774.9358407079646 548.6017699115044 775.891592920354 Q 546.6902654867257 776.8473451327434 544.7787610619469 778.7588495575221 Q 542.8672566371681 780.6703539823009 540 782.5818584070796 Q 537.1327433628319 784.4933628318585 533.3097345132744 787.3606194690266 Q 529.4867256637168 790.2278761061947 525.6637168141593 793.0951327433629 Q 521.8407079646018 795.962389380531 517.0619469026549 799.7853982300885 Q 512.283185840708 803.6084070796461 507.50442477876106 808.387168141593 Q 502.72566371681415 813.1659292035398 496.9911504424779 816.9889380530974 Q 491.2566371681416 820.8119469026549 486.4778761061947 824.6349557522124 Q 481.69911504424783 828.45796460177 477.8761061946903 832.2809734513276 Q 474.05309734513276 836.103982300885 472.141592920354 838.0154867256638 Q 470.2300884955752 839.9269911504425 468.3185840707965 841.8384955752213 Q 466.40707964601773 843.75 464.49557522123894 844.7057522123894 Q 462.5840707964602 845.6615044247789 460.67256637168146 847.5730088495576 Q 458.76106194690266 849.4845132743363 457.8053097345133 851.3960176991151 Q 456.8495575221239 853.3075221238938 454.9380530973451 854.2632743362832 Q 453.0265486725664 855.2190265486726 453.0265486725664 857.1305309734514 Q 453.0265486725664 859.0420353982302 452.070796460177 859.0420353982302 Q 451.11504424778764 859.0420353982302 450.15929203539827 860.9535398230089 Q 449.2035398230089 862.8650442477876 448.2477876106195 864.7765486725664 Q 447.2920353982301 866.6880530973451 447.2920353982301 867.6438053097345 Q 447.2920353982301 868.599557522124 445.3805309734513 869.5553097345133 Q 443.46902654867256 870.5110619469027 442.5132743362832 871.4668141592921 Q 441.5575221238938 872.4225663716815 440.60176991150445 874.3340707964602 Q 439.6460176991151 876.2455752212389 438.6902654867257 877.2013274336284 Q 437.7345132743363 878.1570796460178 436.7787610619469 880.0685840707965 Q 435.82300884955754 881.9800884955753 434.86725663716817 882.9358407079646 Q 433.9115044247788 883.891592920354 432 884.8473451327434 Q 430.08849557522126 885.8030973451328 428.1769911504425 887.7146017699115 Q 426.2654867256637 889.6261061946904 425.30973451327435 891.5376106194691 Q 424.353982300885 893.4491150442478 421.4867256637168 895.3606194690266 Q 418.6194690265487 897.2721238938053 417.66371681415933 898.2278761061947 Q 416.7079646017699 899.183628318584 415.75221238938053 901.0951327433629 Q 414.79646017699116 903.0066371681417 413.8407079646018 903.0066371681417 L 412.8759557522124 903.0066371681417" stroke-linecap="round"/>
</g></svg>